<svg width="21" height="27" viewBox="0 0 21 27" fill="none" xmlns="http://www.w3.org/2000/svg">
<path fill-rule="evenodd" clip-rule="evenodd" d="M6.47333 0C5.32959 0 4.70466 0.547297 4.63391 1.57348H16.2953C16.2128 0.547297 15.5879 0 14.4441 0H6.47333ZM4.59854 3.18117C3.33689 3.18117 2.77092 3.79688 2.60584 4.88007H18.3116C18.1465 3.79688 17.5806 3.18117 16.3189 3.18117H4.59854ZM0 23.2943C0 25.7344 1.32061 27 3.86749 27H17.4273C19.6794 27 21 25.7344 21 23.2943V10.3986C21 7.95861 19.6794 6.69299 17.1325 6.69299H3.86749C1.32061 6.69299 0 7.95861 0 10.3986V23.2943ZM15 19.8769V15.8019H14.9971C14.9971 15.3379 14.9971 14.8738 14.9972 14.4096C14.9974 13.4812 14.9976 12.5525 14.9971 11.6238C14.9971 11.5235 14.9949 11.4225 14.9824 11.3228C14.9574 11.1222 14.7946 10.9921 14.5811 11.0004C14.4872 11.0038 14.3925 11.0128 14.3001 11.0301C13.4447 11.19 12.5892 11.3505 11.7345 11.5131C10.8079 11.6889 9.88131 11.866 8.95544 12.0439C8.93732 12.0473 8.91919 12.0507 8.90105 12.0542C8.7077 12.0908 8.51365 12.1275 8.3245 12.1781C8.11394 12.2348 7.98335 12.3739 7.9496 12.5808C7.93273 12.6853 7.92466 12.7919 7.92466 12.8977C7.92319 14.9903 7.92246 17.0835 7.92173 19.176L7.92173 19.178C7.92173 19.2033 7.92196 19.2286 7.92218 19.2538C7.92287 19.3293 7.92356 19.4045 7.91806 19.4797C7.89825 19.7489 7.74785 19.9143 7.47053 19.9752C7.39894 19.9907 7.3269 20.004 7.25491 20.0173C7.19559 20.0282 7.13629 20.0391 7.07729 20.0513C6.99394 20.0685 6.9102 20.0844 6.82644 20.1004C6.52902 20.157 6.23131 20.2137 5.94967 20.326C5.35981 20.5613 5.026 20.9765 5.00106 21.5875C4.97465 22.2552 5.44565 22.8199 6.13308 22.9645C6.50651 23.0427 6.87114 22.9783 7.23429 22.9008C8.08093 22.7209 8.57321 22.1404 8.62677 21.3314C8.64505 21.0511 8.64389 20.7689 8.64274 20.4871C8.64245 20.4184 8.64217 20.3497 8.64217 20.281C8.64364 18.6155 8.64364 16.9499 8.64364 15.2843C8.64437 15.0124 8.7192 14.9211 9.00093 14.8574C9.09525 14.8364 9.18993 14.8189 9.28471 14.8015C9.32705 14.7937 9.36941 14.7859 9.41177 14.7778C9.66277 14.7301 9.91373 14.6823 10.1647 14.6345C11.0844 14.4593 12.004 14.2842 12.9245 14.1108C13.2759 14.0443 13.6288 13.9841 13.9824 13.9274C14.1248 13.9046 14.2201 13.9689 14.2531 14.1004C14.2715 14.1724 14.273 14.2485 14.273 14.3225C14.2744 15.5341 14.2744 16.7465 14.2744 17.9581C14.2744 17.9855 14.2746 18.0128 14.2747 18.04C14.2751 18.1218 14.2755 18.2034 14.2722 18.2854C14.2627 18.5317 14.124 18.6944 13.8694 18.7532C13.7972 18.7698 13.7244 18.7843 13.6515 18.7988C13.5787 18.8134 13.5059 18.8279 13.4337 18.8445C13.3314 18.8679 13.2284 18.8894 13.1255 18.911C12.8779 18.9629 12.6303 19.0148 12.3919 19.0915C11.6399 19.3337 11.2415 19.9842 11.3838 20.6914C11.4997 21.2685 12.0426 21.7293 12.6611 21.7771C12.9619 21.7999 13.2561 21.7618 13.5488 21.7023C14.102 21.5902 14.5378 21.3266 14.7982 20.8388C14.9604 20.5357 15 20.2105 15 19.8769Z" fill="#FF2D55"/>
</svg>
